<?xml version="1.0" encoding="UTF-8" standalone="no"?>
<!DOCTYPE svg PUBLIC "-//W3C//DTD SVG 1.1//EN" "http://www.w3.org/Graphics/SVG/1.1/DTD/svg11.dtd">
<!-- 由 Microsoft Visio, SVG Export 生成 figures.svg 页-1 -->
<svg xmlns="http://www.w3.org/2000/svg" xmlns:xlink="http://www.w3.org/1999/xlink" xmlns:ev="http://www.w3.org/2001/xml-events"
		xmlns:v="http://schemas.microsoft.com/visio/2003/SVGExtensions/" width="4.16188in" height="1.78207in"
		viewBox="0 0 299.655 128.309" xml:space="preserve" color-interpolation-filters="sRGB" class="st7">
	<v:documentProperties v:langID="2052" v:metric="true" v:viewMarkup="false"/>

	<style type="text/css">
	<![CDATA[
		.st1 {fill:#ffffff;stroke:#000000;stroke-linecap:round;stroke-linejoin:round;stroke-width:0.75}
		.st2 {fill:#000000;font-family:宋体;font-size:1.00001em}
		.st3 {marker-end:url(#mrkr5-27);stroke:#000000;stroke-linecap:round;stroke-linejoin:round;stroke-width:0.75}
		.st4 {fill:#000000;fill-opacity:1;stroke:#000000;stroke-opacity:1;stroke-width:0.22935779816514}
		.st5 {fill:none;stroke:none;stroke-linecap:round;stroke-linejoin:round;stroke-width:0.75}
		.st6 {fill:#000000;font-family:宋体;font-size:0.833336em}
		.st7 {fill:none;fill-rule:evenodd;font-size:12px;overflow:visible;stroke-linecap:square;stroke-miterlimit:3}
	]]>
	</style>

	<defs id="Markers">
		<g id="lend5">
			<path d="M 2 1 L 0 0 L 1.98117 -0.993387 C 1.67173 -0.364515 1.67301 0.372641 1.98465 1.00043 " style="stroke:none"/>
		</g>
		<marker id="mrkr5-27" class="st4" v:arrowType="5" v:arrowSize="2" v:setback="7.63" refX="-7.63" orient="auto"
				markerUnits="strokeWidth" overflow="visible">
			<use xlink:href="#lend5" transform="scale(-4.36,-4.36) "/>
		</marker>
	</defs>
	<g v:mID="0" v:index="1" v:groupContext="foregroundPage">
		<title>页-1</title>
		<v:pageProperties v:drawingScale="0.0393701" v:pageScale="0.0393701" v:drawingUnits="24" v:shadowOffsetX="8.50394"
				v:shadowOffsetY="-8.50394"/>
		<g id="shape1-1" v:mID="1" v:groupContext="shape" transform="translate(56.9182,-14.5482)">
			<title>工作表.1</title>
			<desc>系统中断</desc>
			<v:textBlock v:margins="rect(4,4,4,4)" v:tabSpace="42.5197" v:verticalText="true"/>
			<v:textRect cx="11.3386" cy="85.7894" width="22.68" height="85.0394"/>
			<rect x="0" y="43.2697" width="22.6772" height="85.0394" class="st1"/>
			<text x="11.34" y="61.79" writing-mode="tb-rl" class="st2" v:langID="2052"><v:paragraph v:horizAlign="1"/><v:tabList/>系统中断</text>		</g>
		<g id="shape2-4" v:mID="2" v:groupContext="shape" transform="translate(113.611,-14.5482)">
			<title>工作表.2</title>
			<desc>通道</desc>
			<v:textBlock v:margins="rect(4,4,4,4)" v:tabSpace="42.5197" v:verticalText="true"/>
			<v:textRect cx="11.3386" cy="85.7894" width="22.68" height="85.0394"/>
			<rect x="0" y="43.2697" width="22.6772" height="85.0394" class="st1"/>
			<text x="11.34" y="73.79" writing-mode="tb-rl" class="st2" v:langID="2052"><v:paragraph v:horizAlign="1"/><v:tabList/>通道</text>		</g>
		<g id="shape3-7" v:mID="3" v:groupContext="shape" transform="translate(170.304,-14.5482)">
			<title>工作表.3</title>
			<desc>主机中断</desc>
			<v:textBlock v:margins="rect(4,4,4,4)" v:tabSpace="42.5197" v:verticalText="true"/>
			<v:textRect cx="11.3386" cy="85.7894" width="22.68" height="85.0394"/>
			<rect x="0" y="43.2697" width="22.6772" height="85.0394" class="st1"/>
			<text x="11.34" y="61.79" writing-mode="tb-rl" class="st2" v:langID="2052"><v:paragraph v:horizAlign="1"/><v:tabList/>主机中断</text>		</g>
		<g id="shape4-10" v:mID="4" v:groupContext="shape" transform="translate(228.414,-106.674)">
			<title>工作表.4</title>
			<desc>CorePac0</desc>
			<v:textBlock v:margins="rect(4,4,4,4)" v:tabSpace="42.5197"/>
			<v:textRect cx="35.4331" cy="117.679" width="70.87" height="21.2598"/>
			<rect x="0" y="107.049" width="70.8661" height="21.2598" class="st1"/>
			<text x="11.43" y="121.28" class="st2" v:langID="2052"><v:paragraph v:horizAlign="1"/><v:tabList/>CorePac0</text>		</g>
		<g id="shape5-13" v:mID="5" v:groupContext="shape" transform="translate(228.414,-71.2411)">
			<title>工作表.5</title>
			<desc>CorePac1</desc>
			<v:textBlock v:margins="rect(4,4,4,4)" v:tabSpace="42.5197"/>
			<v:textRect cx="35.4331" cy="117.679" width="70.87" height="21.2598"/>
			<rect x="0" y="107.049" width="70.8661" height="21.2598" class="st1"/>
			<text x="11.43" y="121.28" class="st2" v:langID="2052"><v:paragraph v:horizAlign="1"/><v:tabList/>CorePac1</text>		</g>
		<g id="shape6-16" v:mID="6" v:groupContext="shape" transform="translate(228.414,-35.8081)">
			<title>工作表.6</title>
			<desc>……</desc>
			<v:textBlock v:margins="rect(4,4,4,4)" v:tabSpace="42.5197"/>
			<v:textRect cx="35.4331" cy="117.679" width="70.87" height="21.2598"/>
			<rect x="0" y="107.049" width="70.8661" height="21.2598" class="st1"/>
			<text x="23.43" y="121.28" class="st2" v:langID="2052"><v:paragraph v:horizAlign="1"/><v:tabList/>……</text>		</g>
		<g id="shape7-19" v:mID="7" v:groupContext="shape" transform="translate(228.414,-0.375)">
			<title>工作表.7</title>
			<desc>CorePac7</desc>
			<v:textBlock v:margins="rect(4,4,4,4)" v:tabSpace="42.5197"/>
			<v:textRect cx="35.4331" cy="117.679" width="70.87" height="21.2598"/>
			<rect x="0" y="107.049" width="70.8661" height="21.2598" class="st1"/>
			<text x="11.43" y="121.28" class="st2" v:langID="2052"><v:paragraph v:horizAlign="1"/><v:tabList/>CorePac7</text>		</g>
		<g id="shape8-22" v:mID="8" v:groupContext="shape" transform="translate(79.5954,-85.4144)">
			<title>工作表.8</title>
			<path d="M0 128.31 L28.29 128.31" class="st3"/>
		</g>
		<g id="shape10-28" v:mID="10" v:groupContext="shape" transform="translate(143.901,-67.995) rotate(30.078)">
			<title>工作表.10</title>
			<path d="M0 128.31 L33.59 128.31" class="st3"/>
		</g>
		<g id="shape12-33" v:mID="12" v:groupContext="shape" transform="translate(187.75,-25.5732) rotate(57.45)">
			<title>工作表.12</title>
			<path d="M0 128.31 L57.5 128.31" class="st3"/>
		</g>
		<g id="shape14-38" v:mID="14" v:groupContext="shape" transform="translate(79.5954,225.062) scale(1,-1)">
			<title>工作表.14</title>
			<path d="M0 128.31 L28.29 128.31" class="st3"/>
		</g>
		<g id="shape16-43" v:mID="16" v:groupContext="shape" transform="translate(150.46,203.576) rotate(-33.5245) scale(1,-1)">
			<title>工作表.16</title>
			<path d="M0 128.31 L35.08 128.31" class="st3"/>
		</g>
		<g id="shape18-48" v:mID="18" v:groupContext="shape" transform="translate(187.75,165.221) rotate(-57.45) scale(1,-1)">
			<title>工作表.18</title>
			<path d="M0 128.31 L57.5 128.31" class="st3"/>
		</g>
		<g id="shape19-53" v:mID="19" v:groupContext="shape" transform="translate(135.754,-71.8069) rotate(-0.238727)">
			<title>工作表.19</title>
			<path d="M0 128.31 L28.29 128.31" class="st3"/>
		</g>
		<g id="shape20-58" v:mID="20" v:groupContext="shape" transform="translate(135.754,-58.0589) rotate(-0.238727)">
			<title>工作表.20</title>
			<path d="M0 128.31 L28.29 128.31" class="st3"/>
		</g>
		<g id="shape21-63" v:mID="21" v:groupContext="shape" transform="translate(135.754,-31.4133) rotate(-0.238727)">
			<title>工作表.21</title>
			<path d="M0 128.31 L28.29 128.31" class="st3"/>
		</g>
		<g id="shape22-68" v:mID="22" v:groupContext="shape" transform="translate(135.754,-45.5865) rotate(-0.238727)">
			<title>工作表.22</title>
			<path d="M0 128.31 L28.29 128.31" class="st3"/>
		</g>
		<g id="shape23-73" v:mID="23" v:groupContext="shape" transform="translate(135.754,-85.2715) rotate(-0.238727)">
			<title>工作表.23</title>
			<path d="M0 128.31 L28.29 128.31" class="st3"/>
		</g>
		<g id="shape24-78" v:mID="24" v:groupContext="shape" transform="translate(130.06,-63.1683) rotate(23.1602)">
			<title>工作表.24</title>
			<path d="M0 128.31 L31.27 128.31" class="st3"/>
		</g>
		<g id="shape25-83" v:mID="25" v:groupContext="shape" transform="translate(130.06,-47.1053) rotate(23.1602)">
			<title>工作表.25</title>
			<path d="M0 128.31 L31.27 128.31" class="st3"/>
		</g>
		<g id="shape26-88" v:mID="26" v:groupContext="shape" transform="translate(-1.56452,-20.5793) rotate(-39.2374)">
			<title>工作表.26</title>
			<path d="M0 128.31 L38.2 128.31" class="st3"/>
		</g>
		<g id="shape27-93" v:mID="27" v:groupContext="shape" transform="translate(104.123,-46.8312) rotate(-43.8309)">
			<title>工作表.27</title>
			<path d="M0 128.31 L43.4 128.31" class="st3"/>
		</g>
		<g id="shape28-98" v:mID="28" v:groupContext="shape" transform="translate(145.328,-59.2294) rotate(-21.8014)">
			<title>工作表.28</title>
			<path d="M0 128.31 L32.44 128.31" class="st3"/>
		</g>
		<g id="shape29-103" v:mID="29" v:groupContext="shape" transform="translate(213.253,-52.6218) rotate(9.09028)">
			<title>工作表.29</title>
			<path d="M0 128.31 L30.16 128.31" class="st3"/>
		</g>
		<g id="shape30-108" v:mID="30" v:groupContext="shape" transform="translate(277.746,-10.909) rotate(41.3478)">
			<title>工作表.30</title>
			<path d="M0 128.31 L41.48 128.31" class="st3"/>
		</g>
		<g id="shape31-113" v:mID="31" v:groupContext="shape" transform="translate(7.31194,199.55) scale(1,-1)">
			<title>工作表.31</title>
			<path d="M0 128.31 L43.88 128.31" class="st3"/>
		</g>
		<g id="shape32-118" v:mID="32" v:groupContext="shape" transform="translate(68.2568,-100.51)">
			<title>工作表.32</title>
			<desc>通道映射</desc>
			<v:textBlock v:margins="rect(4,4,4,4)" v:tabSpace="42.5197"/>
			<v:textRect cx="28.3465" cy="120.266" width="56.7" height="16.0855"/>
			<rect x="0" y="112.224" width="56.6929" height="16.0855" class="st5"/>
			<text x="8.35" y="123.27" class="st6" v:langID="2052"><v:paragraph v:horizAlign="1"/><v:tabList/>通道映射</text>		</g>
		<g id="shape34-121" v:mID="34" v:groupContext="shape" transform="translate(1.64266,-55.1557)">
			<title>工作表.34</title>
			<desc>外部事件</desc>
			<v:textBlock v:margins="rect(4,4,4,4)" v:tabSpace="42.5197"/>
			<v:textRect cx="28.3465" cy="120.266" width="56.7" height="16.0855"/>
			<rect x="0" y="112.224" width="56.6929" height="16.0855" class="st5"/>
			<text x="8.35" y="123.27" class="st6" v:langID="2052"><v:paragraph v:horizAlign="1"/><v:tabList/>外部事件</text>		</g>
	</g>
</svg>
